<?xml version="1.0"?>
<svg xmlns:rdf="http://www.w3.org/1999/02/22-rdf-syntax-ns#" xmlns="http://www.w3.org/2000/svg" xmlns:cc="http://creativecommons.org/ns#" xmlns:xlink="http://www.w3.org/1999/xlink" xmlns:dc="http://purl.org/dc/elements/1.1/" xmlns:svg="http://www.w3.org/2000/svg" id="svg1" viewBox="0 0 210 290" version="1.0">
  <defs id="defs3">
    <linearGradient id="linearGradient2978">
      <stop id="stop2979" stop-color="#f4ebe7" offset="0"/>
      <stop id="stop2980" stop-color="#fffbfb" offset="1"/>
    </linearGradient>
    <linearGradient id="linearGradient1198" y2="256.2" xlink:href="#linearGradient2978" gradientUnits="userSpaceOnUse" y1="256.2" gradientTransform="matrix(1.2467 0 0 .71474 -94.026 -72.064)" x2="156.49" x1="83.295"/>
    <linearGradient id="linearGradient1199" y2="180.54" xlink:href="#linearGradient2978" gradientUnits="userSpaceOnUse" y1="180.54" gradientTransform="matrix(1.1404 0 0 .78135 -93.685 -70.712)" x2="155.82" x1="106.49"/>
    <linearGradient id="linearGradient1200" y2="59.478" gradientUnits="userSpaceOnUse" y1="59.478" gradientTransform="matrix(.54354 0 0 1.8398 -.35989 .35989)" x2="294.9" x1="272.84">
      <stop id="stop6747" stop-color="#fae474" offset="0"/>
      <stop id="stop6748" stop-color="#fcf6cf" offset="1"/>
    </linearGradient>
    <radialGradient id="radialGradient1201" gradientUnits="userSpaceOnUse" cy="66.428" cx="202.09" gradientTransform="scale(.76332 1.3101)" r="9.3563">
      <stop id="stop7995" stop-color="#ffffda" offset="0"/>
      <stop id="stop7996" stop-color="#fdff05" stop-opacity=".78481" offset="1"/>
    </radialGradient>
    <radialGradient id="radialGradient1202" xlink:href="#linearGradient2978" gradientUnits="userSpaceOnUse" cy="79.318" cx="233.3" gradientTransform="matrix(.55392 0 0 1.6087 -93.685 -70.712)" r="8.4254"/>
    <radialGradient id="radialGradient1203" xlink:href="#linearGradient2978" gradientUnits="userSpaceOnUse" cy="79.318" cx="233.3" gradientTransform="matrix(.55392 0 0 1.6087 -77.268 -69.389)" r="8.4254"/>
    <radialGradient id="radialGradient1204" xlink:href="#linearGradient2978" gradientUnits="userSpaceOnUse" cy="79.318" cx="233.3" gradientTransform="matrix(.55392 0 0 1.6087 -58.134 -71.247)" r="8.4254"/>
    <radialGradient id="radialGradient1205" xlink:href="#linearGradient2978" gradientUnits="userSpaceOnUse" cy="79.318" cx="233.3" gradientTransform="matrix(.55392 0 0 1.6087 -109.04 -32.74)" r="8.4254"/>
    <radialGradient id="radialGradient1206" xlink:href="#linearGradient2978" gradientUnits="userSpaceOnUse" cy="79.318" cx="233.3" gradientTransform="matrix(.55392 0 0 1.6087 -90.593 -29.362)" r="8.4254"/>
    <radialGradient id="radialGradient1207" xlink:href="#linearGradient2978" gradientUnits="userSpaceOnUse" cy="79.318" cx="233.3" gradientTransform="matrix(.55392 0 0 1.6087 -67.359 -29.868)" r="8.4254"/>
    <radialGradient id="radialGradient1208" xlink:href="#linearGradient2978" gradientUnits="userSpaceOnUse" cy="79.318" cx="233.3" gradientTransform="matrix(.55392 0 0 1.6087 -47.542 -32.571)" r="8.4254"/>
    <radialGradient id="radialGradient1209" xlink:href="#linearGradient2978" gradientUnits="userSpaceOnUse" cy="79.318" cx="233.3" gradientTransform="matrix(.55392 0 0 1.6087 -35.071 -38.144)" r="8.4254"/>
  </defs>
  <g id="layer2" transform="translate(-59.988 -12.289)" display="block">
    <g id="g1181" transform="matrix(2.1626 0 0 2.0864 45.011 9.3227)">
      <path id="path9266" d="m198.93 172.52a42.782 8.9073 0 1 1 -85.56 0 42.782 8.9073 0 1 1 85.56 0z" transform="matrix(1.0206 0 0 .93857 -103.61 -74.766)" stroke="#ffa9a9" stroke-linecap="round" stroke-width=".75" fill="#900"/>
      <path id="path2352" d="m11.551 124.56c2.392 4.39 16.23 12.67 41.684 12.5 26.48-0.17 42.23-6.94 46.468-12.5 1.587-2.46 1.427-4.98-0.192-5.99 0.211-4.48-1.914-19.606 0.085-26.545 3.024-3.224-0.832-7.236-1.43-6.814-1.367 3.378-21.697 9.965-44.247 9.965-22.553 0-39.634-3.04-41.685-8.445-2.7329 3.378-1.776 2.769-0.384 5.362 1.682 3.133-0.456 20.217-0.304 26.597-2.9238 2.32-1.105 5.62 0.005 5.87z" fill-rule="evenodd" stroke="#ffa9a9" stroke-width=".76697" fill="url(#linearGradient1198)"/>
      <path id="path9267" d="m181.84 131.67a25.462 2.6092 0 1 1 -50.93 0 25.462 2.6092 0 1 1 50.93 0z" transform="matrix(.96590 0 0 1.0518 -96.011 -86.629)" stroke="#ffa9a9" stroke-linecap="round" stroke-width=".86631" fill="#900"/>
      <path id="path2353" d="m29.318 86.056c2.734 2.026 11.617 5.404 24.942 5.066 13.667-0.337 26.309-3.715 28.359-7.769 1.367-1.351 2.243-4.539-0.854-5.235-0.705-5.764-1.952-14.436-1.164-22.642 3.18-2.465-0.886-4.55-1.057-4.212-0.683 1.351-12.3 2.702-25.284 3.378-12.983 0.675-24.258-2.703-24.258-2.703-1.481 0.76-2.278 5.236 0 6.334 1.025 6.39 0.341 15.482-0.684 22.885-1.936 0.169-1.822 3.378 0 4.898z" fill-rule="evenodd" stroke="#ffa9a9" stroke-width=".64897" fill="url(#linearGradient1199)"/>
      <g id="g7998" transform="matrix(.94938 0 0 .93857 -91.635 -69.192)">
        <path id="path6750" d="m154.3 95.86c0.45-3.419-0.81-3.149-0.09-5.938" stroke="#000" stroke-linecap="round" stroke-width="1.0625" fill="none"/>
        <path id="path6124" d="m148.19 128.52c0.72 0.72 1.88 1.25 5.08 1.17s5.53-0.36 5.71-1.08c-0.45-10.12-0.65-20.97-0.54-26.93 1.37 7.54 0.54-7.012 0.63-9.059-1.3 2.069-1.87 3.464-4.05 3.464-5.48 0.54-5.44-5.201-7.37-6.883 0.79 4.721 2.96 16.258 0.54 39.318z" fill-rule="evenodd" stroke="#fdd14a" stroke-width=".5625" fill="url(#linearGradient1200)"/>
        <path id="path7372" d="m152.77 90.462c-0.54-2.7 3.78-1.98 3.24 0-0.54 1.979 3.42 0.899 2.7-3.599-0.72-4.499-5.22-5.849-5.22-8.638s-2.52 5.399-2.7 7.558 1.98 4.679 1.98 4.679z" fill-rule="evenodd" stroke="#ffff1f" stroke-width=".125" fill="url(#radialGradient1201)"/>
      </g>
      <path id="path8004" d="m34.956 52.446c-1.004 0.704-0.323 1.874-0.374 4.393-0.062 3.028-0.089 13.821 0.203 13.847 1.299 0.119 1.538-8.388 1.538-9.289 0.678-0.387 0.712 0.956 1.452 0.76 1.464-0.387 0.976-7.526 1.11-8.191 0.152-0.752-2.245-2.481-3.929-1.52z" fill-rule="evenodd" stroke="#ffa9a9" stroke-width=".70797" fill="url(#radialGradient1202)"/>
      <path id="path8631" d="m51.373 53.769c-1.004 0.705-0.323 1.874-0.374 4.393-0.062 3.028 0.253 19.057 0.545 19.083 1.298 0.119 1.116-19.624 1.879-19.422 2.183 0.578 0.688 6.903 1.452 6.84 0.61-0.05 1.147-4.486 2.306-9.88 0.152-0.752-4.125-1.975-5.808-1.014z" fill-rule="evenodd" stroke="#ffa9a9" stroke-width=".70797" display="block" fill="url(#radialGradient1203)"/>
      <path id="path8633" d="m69.823 53.432c3.096 15.82 1.222 16.927 2.734 16.72 1.521-0.208-0.391-0.601 1.879-17.227-0.19-1.427-3.356-1.045-4.613 0.507z" fill-rule="evenodd" stroke="#ffa9a9" stroke-width=".70797" display="block" fill="url(#radialGradient1204)"/>
      <path id="path8635" d="m15.924 89.912c-0.502 0.352-0.114 10.628 0.566 10.808 0.381 0.1 0.621-6.13 1.879-6.331 1.134-0.181 0.082 19.651 0.374 19.671 1.299 0.12 2.135-17.251 2.135-18.152 0.678-0.387 1.567 0.956 2.307 0.76 1.464-0.388 0.805-3.135 0.939-3.8-0.104-1.765-6.687-4.677-8.2-2.956z" fill-rule="evenodd" stroke="#ffa9a9" stroke-width=".70797" display="block" fill="url(#radialGradient1205)"/>
      <path id="path8637" d="m37.535 93.881c-1.004 0.704 0.19 1.789 0.139 4.309-0.062 3.03-0.089 23.62 0.203 23.64 1.298 0.12 1.238-18.94 2.092-19.84 0.935 0.79 1.268 2.81 2.008 2.62 1.464-0.39 0.805-8.839 0.939-9.504-0.232-1.259-3.697-2.186-5.381-1.225z" fill-rule="evenodd" stroke="#ffa9a9" stroke-width=".70797" display="block" fill="url(#radialGradient1206)"/>
      <path id="path8639" d="m60.598 94.726c2.071 4.757 1.723 14.504 3.214 14.614 1.146 0.08 0.41-11.331 1.569-14.868-0.873-2.103-3.142-1.805-4.783 0.254z" fill-rule="evenodd" stroke="#ffa9a9" stroke-width=".70797" display="block" fill="url(#radialGradient1207)"/>
      <path id="path8641" d="m77.991 92.616c-0.061 3.028 1.449 16.354 1.741 16.384 1.298 0.12 1.52-10.282 2.221-10.643 0.826-0.426 1.566 20.383 2.306 20.183 1.464-0.39 0.292-26.611 0.427-27.277 0.152-0.751-6.644-1.166-6.695 1.353z" fill-rule="evenodd" stroke="#ffa9a9" stroke-width=".70797" display="block" fill="url(#radialGradient1208)"/>
      <path id="path8643" d="m91.519 85.521c-0.662 1.887 1.386 0.691 1.335 3.211-0.062 3.027-0.089 9.429 0.203 9.456 1.299 0.119 1.879-3.322 1.879-4.222 0.678-0.387 1.396 18.694 2.136 18.494 1.464-0.39 0.292-25.26 0.427-25.926 0.152-0.751-4.296-1.974-5.98-1.013z" fill-rule="evenodd" stroke="#ffa9a9" stroke-width=".70797" display="block" fill="url(#radialGradient1209)"/>
    </g>
  </g>
  <metadata>
    <rdf:RDF>
      <cc:Work>
        <dc:format>image/svg+xml</dc:format>
        <dc:type rdf:resource="http://purl.org/dc/dcmitype/StillImage"/>
        <cc:license rdf:resource="http://creativecommons.org/licenses/publicdomain/"/>
        <dc:publisher>
          <cc:Agent rdf:about="http://openclipart.org/">
            <dc:title>Openclipart</dc:title>
          </cc:Agent>
        </dc:publisher>
        <dc:title>Cake</dc:title>
        <dc:date>2009-04-01T13:32:42</dc:date>
        <dc:description>Birthday cake by Etienne Bersac. From old OCAL site.</dc:description>
        <dc:source>http://openclipart.org/detail/23593/cake-by-anonymous-23593</dc:source>
        <dc:creator>
          <cc:Agent>
            <dc:title>Anonymous</dc:title>
          </cc:Agent>
        </dc:creator>
        <dc:subject>
          <rdf:Bag>
            <rdf:li>birthday</rdf:li>
            <rdf:li>cake</rdf:li>
            <rdf:li>clip art</rdf:li>
            <rdf:li>clipart</rdf:li>
            <rdf:li>cooking</rdf:li>
            <rdf:li>dessert</rdf:li>
            <rdf:li>food</rdf:li>
            <rdf:li>image</rdf:li>
            <rdf:li>media</rdf:li>
            <rdf:li>party</rdf:li>
            <rdf:li>png</rdf:li>
            <rdf:li>public domain</rdf:li>
            <rdf:li>svg</rdf:li>
          </rdf:Bag>
        </dc:subject>
      </cc:Work>
      <cc:License rdf:about="http://creativecommons.org/licenses/publicdomain/">
        <cc:permits rdf:resource="http://creativecommons.org/ns#Reproduction"/>
        <cc:permits rdf:resource="http://creativecommons.org/ns#Distribution"/>
        <cc:permits rdf:resource="http://creativecommons.org/ns#DerivativeWorks"/>
      </cc:License>
    </rdf:RDF>
  </metadata>
</svg>
